<svg width="64" height="64" viewBox="0 0 64 64" fill="none" xmlns="http://www.w3.org/2000/svg">
<path d="M0 32C0 14.3269 14.3269 0 32 0V0C49.6731 0 64 14.3269 64 32V32C64 49.6731 49.6731 64 32 64H0V32Z" fill="#1B1D3D"/>
<g clip-path="url(#clip0_69_1034)">
<path d="M14.821 28.9346C14.821 28.9346 23.9323 41.5337 44.2821 7.0877C44.3088 7.05432 44.3464 7.03127 44.3885 7.02248C44.4305 7.0137 44.4743 7.01974 44.5123 7.03958C44.5503 7.05942 44.5802 7.09181 44.5967 7.13117C44.6133 7.17054 44.6156 7.21442 44.6032 7.25526C40.5894 15.761 31.1651 38.1107 41.7775 41.3741C41.7775 41.3741 21.7247 54.2844 14.821 28.9346Z" fill="url(#paint0_linear_69_1034)"/>
<path d="M31.9999 14.2451C27.8443 14.2435 23.7815 15.4671 20.3255 17.761C16.8695 20.0548 14.1756 23.316 12.5846 27.1319C10.9935 30.9478 10.5768 35.147 11.3872 39.1984C12.1975 43.2497 14.1985 46.9712 17.137 49.892C20.0755 52.8128 23.8195 54.8017 27.8954 55.6072C31.9713 56.4126 36.196 55.9985 40.0351 54.417C43.8741 52.8355 47.155 50.1579 49.4628 46.7227C51.7706 43.2876 53.0015 39.2492 52.9999 35.1186C52.9999 29.5826 50.7874 24.2734 46.8492 20.3588C42.9109 16.4443 37.5695 14.2451 31.9999 14.2451V14.2451ZM31.9999 42.1722C29.6288 42.1738 27.3105 41.4762 25.3384 40.1678C23.3662 38.8594 21.8288 36.999 20.9207 34.8218C20.0125 32.6447 19.7745 30.2488 20.2367 27.9372C20.6989 25.6255 21.8406 23.5021 23.5172 21.8356C25.1938 20.1691 27.3301 19.0343 29.6557 18.5749C31.9813 18.1155 34.3918 18.3521 36.5821 19.2547C38.7724 20.1574 40.6442 21.6855 41.9605 23.6458C43.2768 25.6061 43.9786 27.9104 43.977 30.2673C43.9749 33.424 42.7123 36.4508 40.4667 38.683C38.221 40.9151 35.1758 42.1701 31.9999 42.1722V42.1722Z" fill="url(#paint1_linear_69_1034)"/>
</g>
<defs>
<linearGradient id="paint0_linear_69_1034" x1="36.1557" y1="4.41203" x2="-3.51041" y2="66.264" gradientUnits="userSpaceOnUse">
<stop stop-color="#F5C2F8"/>
<stop offset="1" stop-color="#2958E6"/>
</linearGradient>
<linearGradient id="paint1_linear_69_1034" x1="43.9369" y1="17.3251" x2="19.2832" y2="54.5258" gradientUnits="userSpaceOnUse">
<stop stop-color="#B881DA"/>
<stop offset="1" stop-color="#2C92FF"/>
</linearGradient>
<clipPath id="clip0_69_1034">
<rect width="42" height="49" fill="white" transform="translate(11 7)"/>
</clipPath>
</defs>
</svg>
