<svg width="80" height="80" viewBox="0 0 80 80" fill="none" xmlns="http://www.w3.org/2000/svg">
<path d="M49.6251 61.0388C49.6251 61.3703 49.4934 61.6882 49.2589 61.9226C49.0245 62.1571 48.7066 62.2888 48.3751 62.2888H46.4663C46.1348 62.2888 45.8168 62.1571 45.5824 61.9226C45.348 61.6882 45.2163 61.3703 45.2163 61.0388C45.2163 60.7072 45.348 60.3893 45.5824 60.1549C45.8168 59.9204 46.1348 59.7888 46.4663 59.7888H48.3751C48.7066 59.7888 49.0245 59.9204 49.2589 60.1549C49.4934 60.3893 49.6251 60.7072 49.6251 61.0388ZM65.3238 59.0387C64.0349 59.5373 62.6645 59.7916 61.2826 59.7888H52.7063C52.3748 59.7888 52.0569 59.9204 51.8224 60.1549C51.588 60.3893 51.4563 60.7072 51.4563 61.0388C51.4563 61.3703 51.588 61.6882 51.8224 61.9226C52.0569 62.1571 52.3748 62.2888 52.7063 62.2888H61.2838C62.9744 62.2916 64.6509 61.9801 66.2276 61.37C66.5369 61.2503 66.786 61.0127 66.9201 60.7093C67.0541 60.406 67.0622 60.0618 66.9426 59.7525C66.8229 59.4432 66.5852 59.1941 66.2819 59.06C65.9786 58.9259 65.6344 58.9178 65.3251 59.0375L65.3238 59.0387ZM70.0338 22.25V48.5388C70.0312 50.8586 69.1084 53.0826 67.4681 54.723C65.8277 56.3634 63.6036 57.2861 61.2838 57.2888H34.3926L23.7801 66.2025C23.5978 66.3555 23.3756 66.4533 23.1397 66.4844C22.9037 66.5156 22.6638 66.4787 22.4481 66.3781C22.2324 66.2775 22.0499 66.1175 21.9221 65.9168C21.7942 65.716 21.7263 65.483 21.7263 65.245V57.2888H18.7163C16.3965 57.2861 14.1724 56.3634 12.532 54.723C10.8917 53.0826 9.96896 50.8586 9.96631 48.5388V22.25C9.96896 19.9302 10.8917 17.7061 12.532 16.0657C14.1724 14.4254 16.3965 13.5026 18.7163 13.5H61.2838C63.6036 13.5026 65.8277 14.4254 67.4681 16.0657C69.1084 17.7061 70.0312 19.9302 70.0338 22.25V22.25ZM67.5338 22.25C67.5318 20.593 66.8727 19.0044 65.701 17.8328C64.5294 16.6611 62.9408 16.002 61.2838 16H18.7163C17.0593 16.002 15.4708 16.6611 14.2991 17.8328C13.1274 19.0044 12.4683 20.593 12.4663 22.25V48.5388C12.4683 50.1957 13.1274 51.7843 14.2991 52.956C15.4708 54.1276 17.0593 54.7868 18.7163 54.7888H22.9763C23.3078 54.7888 23.6258 54.9204 23.8602 55.1549C24.0946 55.3893 24.2263 55.7072 24.2263 56.0388V62.5637L33.1326 55.0812C33.3577 54.8923 33.6423 54.7887 33.9363 54.7888H61.2838C62.9408 54.7868 64.5294 54.1276 65.701 52.956C66.8727 51.7843 67.5318 50.1957 67.5338 48.5388V22.25ZM36.3488 32.725L36.0363 34.6637C35.9919 34.9435 36.0258 35.2301 36.1341 35.4918C36.2424 35.7536 36.4209 35.9803 36.65 36.1469C36.8791 36.3135 37.1498 36.4135 37.4321 36.4359C37.7145 36.4583 37.9976 36.4022 38.2501 36.2737L40.0001 35.375L41.7501 36.2712C42.0027 36.4007 42.2862 36.4576 42.5692 36.4357C42.8521 36.4138 43.1235 36.3139 43.3532 36.1472C43.5829 35.9804 43.7619 35.7533 43.8703 35.491C43.9788 35.2287 44.0124 34.9415 43.9676 34.6613L43.6551 32.7225L45.0463 31.3387C45.2479 31.1387 45.3899 30.8866 45.4568 30.6106C45.5236 30.3346 45.5126 30.0454 45.4248 29.7753C45.3371 29.5052 45.1762 29.2647 44.96 29.0806C44.7438 28.8965 44.4807 28.776 44.2001 28.7325L42.2601 28.4313L41.3738 26.6812C41.2457 26.4278 41.0499 26.2149 40.808 26.0661C40.5662 25.9173 40.2878 25.8386 40.0038 25.8386C39.7199 25.8386 39.4415 25.9173 39.1996 26.0661C38.9577 26.2149 38.7619 26.4278 38.6338 26.6812L37.7476 28.4313L35.8076 28.7325C35.5269 28.776 35.2639 28.8965 35.0476 29.0806C34.8314 29.2647 34.6705 29.5052 34.5828 29.7753C34.4951 30.0454 34.484 30.3346 34.5508 30.6106C34.6177 30.8866 34.7598 31.1387 34.9613 31.3387L36.3488 32.725ZM58.5701 28.735L56.6251 28.4337L55.7388 26.6837C55.6107 26.4303 55.4149 26.2174 55.173 26.0686C54.9312 25.9198 54.6528 25.8411 54.3688 25.8411C54.0849 25.8411 53.8065 25.9198 53.5646 26.0686C53.3227 26.2174 53.1269 26.4303 52.9988 26.6837L52.1126 28.4337L50.1726 28.735C49.8919 28.7785 49.6289 28.899 49.4126 29.0831C49.1964 29.2672 49.0355 29.5077 48.9478 29.7778C48.8601 30.0479 48.849 30.3371 48.9158 30.6131C48.9827 30.8891 49.1248 31.1412 49.3263 31.3412L50.7176 32.725L50.4051 34.6637C50.3599 34.9443 50.3934 35.232 50.502 35.4946C50.6105 35.7573 50.7898 35.9847 51.0199 36.1516C51.2499 36.3184 51.5218 36.4182 51.8052 36.4397C52.0886 36.4613 52.3724 36.4039 52.6251 36.2737L54.3751 35.3775L56.1251 36.2737C56.3777 36.4032 56.6612 36.4601 56.9442 36.4382C57.2271 36.4163 57.4985 36.3164 57.7282 36.1497C57.9579 35.9829 58.1369 35.7558 58.2453 35.4935C58.3538 35.2312 58.3874 34.944 58.3426 34.6637L58.0301 32.725L59.4213 31.3412C59.6225 31.1407 59.7641 30.8882 59.8304 30.612C59.8967 30.3357 59.8851 30.0465 59.7969 29.7764C59.7087 29.5064 59.5473 29.2661 59.3308 29.0822C59.1142 28.8984 58.8509 28.7782 58.5701 28.735V28.735ZM21.9751 32.725L21.6626 34.6637C21.6183 34.9433 21.6522 35.2297 21.7605 35.4913C21.8687 35.7528 22.0472 35.9794 22.276 36.1459C22.5049 36.3125 22.7754 36.4126 23.0575 36.4351C23.3397 36.4577 23.6226 36.4018 23.8751 36.2737L25.6251 35.3775L27.3751 36.2737C27.6277 36.4032 27.9112 36.4601 28.1942 36.4382C28.4771 36.4163 28.7485 36.3164 28.9782 36.1497C29.2079 35.9829 29.3869 35.7558 29.4953 35.4935C29.6038 35.2312 29.6374 34.944 29.5926 34.6637L29.2801 32.725L30.6713 31.3412C30.8729 31.1412 31.0149 30.8891 31.0818 30.6131C31.1486 30.3371 31.1376 30.0479 31.0498 29.7778C30.9621 29.5077 30.8012 29.2672 30.585 29.0831C30.3688 28.899 30.1057 28.7785 29.8251 28.735L27.8851 28.4337L26.9988 26.6837C26.8707 26.4303 26.6749 26.2174 26.433 26.0686C26.1912 25.9198 25.9128 25.8411 25.6288 25.8411C25.3449 25.8411 25.0665 25.9198 24.8246 26.0686C24.5827 26.2174 24.3869 26.4303 24.2588 26.6837L23.3726 28.4337L21.4326 28.735C21.1522 28.7789 20.8894 28.8997 20.6735 29.0838C20.4576 29.268 20.2969 29.5084 20.2092 29.7783C20.1216 30.0482 20.1104 30.3372 20.177 30.613C20.2435 30.8889 20.3852 31.141 20.5863 31.3412L21.9751 32.725ZM20.7501 42.175H36.0888C36.4203 42.175 36.7383 42.0433 36.9727 41.8089C37.2071 41.5745 37.3388 41.2565 37.3388 40.925C37.3388 40.5935 37.2071 40.2755 36.9727 40.0411C36.7383 39.8067 36.4203 39.675 36.0888 39.675H20.7501C20.4185 39.675 20.1006 39.8067 19.8662 40.0411C19.6318 40.2755 19.5001 40.5935 19.5001 40.925C19.5001 41.2565 19.6318 41.5745 19.8662 41.8089C20.1006 42.0433 20.4185 42.175 20.7501 42.175ZM48.5838 44.1538H20.7501C20.4185 44.1538 20.1006 44.2854 19.8662 44.5199C19.6318 44.7543 19.5001 45.0722 19.5001 45.4038C19.5001 45.7353 19.6318 46.0532 19.8662 46.2876C20.1006 46.5221 20.4185 46.6538 20.7501 46.6538H48.5888C48.9203 46.6538 49.2383 46.5221 49.4727 46.2876C49.7071 46.0532 49.8388 45.7353 49.8388 45.4038C49.8388 45.0722 49.7071 44.7543 49.4727 44.5199C49.2383 44.2854 48.9203 44.1538 48.5888 44.1538H48.5838Z" fill="white"/>
</svg>
