<svg width="80" height="80" viewBox="0 0 80 80" fill="none" xmlns="http://www.w3.org/2000/svg">
<g clip-path="url(#clip0_73_1085)">
<path d="M13.7475 5.01662C13.4177 5.01794 13.1018 5.14983 12.8685 5.38354C12.6353 5.61725 12.5037 5.93385 12.5024 6.26436V27.5591C12.5015 27.7238 12.5329 27.8871 12.595 28.0396C12.6571 28.1921 12.7486 28.3308 12.8642 28.4478C12.9799 28.5649 13.1174 28.6579 13.269 28.7216C13.4206 28.7853 13.5832 28.8184 13.7475 28.8191H22.4951C22.6605 28.82 22.8244 28.7881 22.9774 28.7251C23.1303 28.6621 23.2693 28.5694 23.3863 28.4522C23.5032 28.335 23.5958 28.1957 23.6586 28.0424C23.7215 27.8891 23.7534 27.7248 23.7524 27.5591V6.26436C23.7518 6.09966 23.7187 5.93671 23.6551 5.78482C23.5916 5.63294 23.4987 5.49511 23.3819 5.37922C23.2652 5.26332 23.1267 5.17164 22.9745 5.10943C22.8224 5.04721 22.6594 5.01567 22.4951 5.01662H13.7475ZM27.4975 5.01662C26.8106 5.01906 26.2548 5.57595 26.2524 6.26436V27.5591C26.251 28.2002 26.732 28.7408 27.3681 28.8093C31.0565 29.2 33.3136 31.6348 35.2026 34.5146C37.193 37.5491 37.5561 41.4084 37.5561 45.6831C37.5561 47.03 38.3412 48.0224 39.5752 48.411C40.1119 48.5802 40.6736 48.6413 41.2426 48.6067C41.8117 48.5721 42.3877 48.4429 42.9614 48.2275C45.2561 47.3661 47.5024 45.0846 47.5024 41.338V32.5721H63.7524C65.6963 32.5721 67.4975 31.1982 67.4975 29.235V27.1432C67.4975 25.8167 66.6919 25.0538 66.6919 25.0538C66.6919 25.0538 67.4975 24.2992 67.4975 22.9645V20.8849C67.4975 19.5594 66.6748 18.7931 66.6748 18.7931C66.6748 18.7931 67.4975 18.0431 67.4975 16.7038V14.6144C67.4975 12.6512 65.6962 11.2776 63.7524 11.2773L63.6401 11.2724C63.6401 11.2724 63.7524 10.9337 63.7524 10.4455V8.35371C63.7524 6.39045 61.939 5.01662 59.9951 5.01662H27.4975ZM15.0048 7.52189H21.25V26.3114H15.0048V7.52189ZM59.9951 7.52189C60.8212 7.52189 61.2524 8.00436 61.2524 8.35371V10.4455C61.2524 10.7948 60.8215 11.2772 59.9951 11.2773H56.25C54.5829 11.2773 54.5829 13.7826 56.25 13.7826H59.9951H63.7524C64.5787 13.7827 64.9975 14.2651 64.9975 14.6144V16.7038C64.9975 17.0531 64.5788 17.5354 63.7524 17.5356H57.5048H57.4951C55.828 17.5356 55.828 20.0433 57.4951 20.0433H57.5048H63.7524C64.5788 20.0434 64.9975 20.5356 64.9975 20.8849V22.9645C64.9975 23.3138 64.5785 23.8061 63.7524 23.8061H57.5048H57.4951C55.828 23.8061 55.828 26.3114 57.4951 26.3114H57.5048H63.7524C64.5788 26.3115 64.9975 26.7938 64.9975 27.1432V29.235C64.9975 29.5843 64.5785 30.0668 63.7524 30.0668H46.2475C45.557 30.0693 44.9998 30.6323 45.0024 31.3243V41.338C45.0024 43.8546 43.5141 45.3423 42.0849 45.8788C41.7276 46.013 41.3801 46.0797 41.0791 46.099C40.778 46.1184 40.5254 46.0898 40.3613 46.0354C40.0329 45.9266 40.0561 45.8106 40.0561 45.6831C40.0561 41.2787 39.8143 36.9985 37.373 33.2767C36.0538 31.2615 33.5469 27.5044 28.7524 26.4924L28.75 7.52433C39.1653 7.52333 49.5797 7.52188 59.9951 7.52189ZM15.1318 55.0827C15.0878 55.0828 15.0438 55.0853 15 55.0901C14.7689 55.1125 14.5487 55.1995 14.3641 55.3413C14.1795 55.4831 14.0378 55.674 13.955 55.8925L11.8847 61.3801L6.07418 61.6566C5.81993 61.6674 5.57505 61.7564 5.37243 61.9116C5.16982 62.0668 5.01919 62.2807 4.94078 62.5247C4.86237 62.7687 4.85993 63.031 4.93379 63.2765C5.00765 63.5219 5.15428 63.7387 5.35397 63.8976L9.89254 67.5772L8.35934 73.2337C8.2948 73.4791 8.30554 73.7384 8.39016 73.9776C8.47478 74.2167 8.62931 74.4244 8.83337 74.5732C9.03743 74.7221 9.28146 74.8052 9.53329 74.8115C9.78512 74.8178 10.0329 74.7471 10.2441 74.6086L15.122 71.3939L19.9829 74.6086C20.194 74.7479 20.4422 74.8194 20.6945 74.8135C20.9468 74.8076 21.1914 74.7246 21.3959 74.5756C21.6005 74.4266 21.7553 74.2185 21.84 73.9789C21.9246 73.7393 21.9351 73.4794 21.8701 73.2337L20.3369 67.5772L24.8755 63.8976C25.0751 63.7387 25.2218 63.5219 25.2956 63.2765C25.3695 63.031 25.3671 62.7687 25.2886 62.5247C25.2102 62.2807 25.0596 62.0668 24.857 61.9116C24.6544 61.7564 24.4095 61.6674 24.1552 61.6566L18.3423 61.3801L16.2866 55.8925C16.1974 55.6561 16.0394 55.4523 15.8334 55.3078C15.6273 55.1633 15.3828 55.0849 15.1318 55.0827ZM39.6704 55.1096C39.6263 55.1097 39.5823 55.1122 39.5385 55.117C39.3079 55.1399 39.0882 55.2271 38.9041 55.3688C38.72 55.5106 38.5787 55.7013 38.4961 55.9195L36.4257 61.4071L30.6128 61.686C30.3585 61.6968 30.1136 61.7857 29.911 61.9409C29.7084 62.0961 29.5578 62.3101 29.4794 62.5541C29.4009 62.7981 29.3985 63.0604 29.4724 63.3058C29.5462 63.5512 29.6929 63.768 29.8925 63.927L34.4311 67.6042L32.8979 73.2606C32.8329 73.5063 32.8434 73.7662 32.928 74.0058C33.0127 74.2454 33.1675 74.4535 33.3721 74.6025C33.5766 74.7516 33.8212 74.8345 34.0735 74.8404C34.3258 74.8463 34.574 74.7748 34.7851 74.6355L39.6606 71.4208L44.5239 74.6355C44.735 74.774 44.9829 74.8447 45.2347 74.8384C45.4865 74.8321 45.7306 74.749 45.9346 74.6001C46.1387 74.4513 46.2932 74.2436 46.3778 74.0045C46.4625 73.7653 46.4732 73.506 46.4087 73.2606L44.8755 67.6042L49.414 63.927C49.6137 63.768 49.7603 63.5512 49.8342 63.3058C49.9081 63.0604 49.9056 62.7981 49.8272 62.5541C49.7488 62.3101 49.5982 62.0961 49.3956 61.9409C49.1929 61.7857 48.9481 61.6968 48.6938 61.686L42.8808 61.4071L40.8276 55.9195C40.7382 55.6826 40.5799 55.4785 40.3734 55.334C40.1669 55.1895 39.9218 55.1113 39.6704 55.1096V55.1096ZM64.2895 55.1096C64.2455 55.1097 64.2015 55.1122 64.1577 55.117C63.9271 55.1399 63.7074 55.2271 63.5232 55.3688C63.3391 55.5106 63.1978 55.7013 63.1152 55.9195L61.0449 61.4071L55.2319 61.686C54.9776 61.6968 54.7328 61.7857 54.5302 61.9409C54.3275 62.0961 54.1769 62.3101 54.0985 62.5541C54.0201 62.7981 54.0176 63.0604 54.0915 63.3058C54.1654 63.5512 54.312 63.768 54.5117 63.927L59.0503 67.6042L57.5171 73.2606C57.452 73.5063 57.4625 73.7662 57.5472 74.0058C57.6318 74.2454 57.7867 74.4535 57.9912 74.6025C58.1957 74.7516 58.4403 74.8345 58.6926 74.8404C58.945 74.8463 59.1931 74.7748 59.4043 74.6355L64.2798 71.4208L69.1406 74.6355C69.3518 74.7748 69.5999 74.8463 69.8522 74.8404C70.1045 74.8345 70.3491 74.7516 70.5537 74.6025C70.7582 74.4535 70.913 74.2454 70.9977 74.0058C71.0824 73.7662 71.0929 73.5063 71.0278 73.2606L69.4946 67.6042L74.0332 63.927C74.2329 63.768 74.3795 63.5512 74.4533 63.3058C74.5272 63.0604 74.5248 62.7981 74.4464 62.5541C74.3679 62.3101 74.2173 62.0961 74.0147 61.9409C73.8121 61.7857 73.5672 61.6968 73.313 61.686L67.5 61.4071L65.4443 55.9195C65.3551 55.683 65.1971 55.4792 64.9911 55.3347C64.785 55.1902 64.5405 55.1118 64.2895 55.1096V55.1096ZM39.6606 59.9073L40.8423 63.0609C40.9266 63.2913 41.0761 63.4917 41.2722 63.6373C41.4683 63.783 41.7025 63.8675 41.9458 63.8805L45.2905 64.0493L42.6831 66.1509C42.4943 66.3053 42.3545 66.5119 42.2807 66.7453C42.207 66.9787 42.2026 67.2288 42.268 67.4647L43.1421 70.726L40.3369 68.8715C40.134 68.7377 39.8969 68.6665 39.6545 68.6665C39.4121 68.6665 39.175 68.7377 38.9721 68.8715L36.1645 70.726L37.0532 67.4647C37.1173 67.2276 37.111 66.9768 37.035 66.7433C36.9591 66.5097 36.8168 66.3038 36.6259 66.1509L34.0185 64.0493L37.3608 63.8805C37.6041 63.8675 37.8383 63.783 38.0344 63.6373C38.2305 63.4917 38.38 63.2913 38.4643 63.0609L39.6606 59.9073ZM64.2798 59.9073L65.4614 63.0609C65.5457 63.2913 65.6952 63.4917 65.8913 63.6373C66.0875 63.783 66.3216 63.8675 66.5649 63.8805L69.9072 64.0493L67.2998 66.1509C67.1115 66.3056 66.9721 66.5123 66.8988 66.7457C66.8255 66.9791 66.8215 67.229 66.8872 67.4647L67.7612 70.726L64.9536 68.8715C64.7507 68.7377 64.5136 68.6665 64.2712 68.6665C64.0288 68.6665 63.7917 68.7377 63.5888 68.8715L60.7837 70.726L61.6723 67.4647C61.7361 67.2274 61.7294 66.9764 61.6531 66.7428C61.5767 66.5093 61.434 66.3035 61.2426 66.1509L58.6352 64.0493L61.9799 63.8805C62.2232 63.8675 62.4574 63.783 62.6535 63.6373C62.8496 63.4917 62.9991 63.2913 63.0835 63.0609L64.2798 59.9073Z" fill="white"/>
</g>
<defs>
<clipPath id="clip0_73_1085">
<rect width="80" height="80" fill="white"/>
</clipPath>
</defs>
</svg>
