<svg width="80" height="80" viewBox="0 0 80 80" fill="none" xmlns="http://www.w3.org/2000/svg">
<path d="M41.3664 4.30322C21.4288 4.30322 5.26636 20.4664 5.26636 40.404C5.26636 60.3416 21.4288 76.4968 41.3664 76.4968C61.3008 76.4968 77.4632 60.3416 77.4632 40.404C77.4632 20.4664 61.3008 4.30322 41.3664 4.30322ZM41.3664 70.852C24.5776 70.852 10.9136 57.1888 10.9136 40.4032C10.9136 23.6096 24.5776 9.95362 41.3664 9.95362C58.1496 9.95362 71.812 23.6088 71.812 40.4032C71.812 57.1888 58.1496 70.852 41.3664 70.852Z" fill="white"/>
<path d="M25.1599 52.6161C24.0567 53.7153 24.0567 55.5033 25.1599 56.6033C26.2631 57.7105 28.0511 57.7105 29.1543 56.6033C35.8831 49.8745 46.8375 49.8745 53.5735 56.6033C54.1159 57.1601 54.8423 57.4313 55.5671 57.4313C56.2855 57.4313 57.0111 57.1601 57.5607 56.6033C58.6607 55.5033 58.6607 53.7153 57.5607 52.6161C48.6303 43.6729 34.0911 43.6729 25.1599 52.6161Z" fill="white"/>
<path d="M31.2286 36.6806C33.439 36.6806 35.235 34.8918 35.235 32.6774C35.235 30.4638 33.439 28.6758 31.2286 28.6758C29.0142 28.6758 27.2271 30.4638 27.2271 32.6774C27.2271 34.891 29.015 36.6806 31.2286 36.6806Z" fill="white"/>
<path d="M51.5008 36.6806C53.7136 36.6806 55.5024 34.8918 55.5024 32.6774C55.5024 30.4638 53.7136 28.6758 51.5008 28.6758C49.2944 28.6758 47.4944 30.4638 47.4944 32.6774C47.4944 34.891 49.2944 36.6806 51.5008 36.6806Z" fill="white"/>
</svg>
