<svg width="80" height="80" viewBox="0 0 80 80" fill="none" xmlns="http://www.w3.org/2000/svg">
<path d="M40.3999 41.9995C35.0852 41.9995 30.7999 37.5102 30.7999 31.9995C30.7999 26.4888 35.0852 21.9995 40.3999 21.9995C45.7147 21.9995 49.9999 26.4888 49.9999 31.9995C49.9999 37.5102 45.7147 41.9995 40.3999 41.9995ZM40.3999 39.5995C44.3636 39.5995 47.5999 36.209 47.5999 31.9995C47.5999 27.79 44.3636 24.3995 40.3999 24.3995C36.4363 24.3995 33.1999 27.79 33.1999 31.9995C33.1999 36.209 36.4363 39.5995 40.3999 39.5995Z" fill="white"/>
<path d="M29.0705 49.101C27.9074 49.8227 27.1999 51.0943 27.1999 52.4631C27.1999 53.091 27.7089 53.5999 28.3367 53.5999H51.6632C52.291 53.5999 52.7999 53.091 52.7999 52.4631C52.7999 51.0943 52.0924 49.8227 50.9293 49.101L44.4842 45.1019C43.059 45.6358 41.547 45.9136 39.9999 45.9136C38.4528 45.9136 36.9408 45.6358 35.5156 45.1019L29.0705 49.101ZM39.9999 43.5136C41.6739 43.5136 43.2606 43.1143 44.6816 42.3999L52.1947 47.0617C54.0633 48.2211 55.1999 50.264 55.1999 52.4631C55.1999 54.4164 53.6165 55.9999 51.6632 55.9999H28.3367C26.3834 55.9999 24.7999 54.4164 24.7999 52.4631C24.7999 50.264 25.9366 48.2211 27.8052 47.0617L35.3183 42.3999C36.7392 43.1143 38.326 43.5136 39.9999 43.5136Z" fill="white"/>
<path d="M64.7999 29.1997C61.9281 29.1997 59.5999 26.8716 59.5999 23.9997C59.5999 22.7571 60.0397 21.5872 60.8061 20.669C56.6099 16.1535 51.0559 13.1008 44.9401 12.0278C44.2551 14.1094 42.2942 15.5997 39.9999 15.5997C37.7057 15.5997 35.7448 14.1094 35.0598 12.0278C28.944 13.1008 23.39 16.1535 19.1938 20.669C19.9602 21.5872 20.4 22.7571 20.4 23.9997C20.4 26.8716 18.0718 29.1997 15.2 29.1997C14.7225 29.1997 14.2538 29.135 13.8041 29.01C12.3567 32.4553 11.6 36.1729 11.6 39.9997C11.6 44.0972 12.4677 48.0686 14.1197 51.7123C14.4718 51.6379 14.8334 51.5997 15.2 51.5997C18.0718 51.5997 20.4 53.9279 20.4 56.7997C20.4 57.8455 20.0888 58.8429 19.5277 59.6836C23.6863 64.0085 29.1084 66.9276 35.0598 67.9717C35.7448 65.89 37.7057 64.3997 39.9999 64.3997C42.2942 64.3997 44.2551 65.89 44.9401 67.9717C50.8915 66.9276 56.3136 64.0085 60.4722 59.6836C59.9111 58.8429 59.5999 57.8455 59.5999 56.7997C59.5999 53.9279 61.9281 51.5997 64.7999 51.5997C65.1665 51.5997 65.5281 51.6379 65.8802 51.7123C67.5322 48.0686 68.3999 44.0972 68.3999 39.9997C68.3999 36.1729 67.6432 32.4553 66.1958 29.01C65.7461 29.135 65.2774 29.1997 64.7999 29.1997ZM67.9043 26.9451C69.8026 30.9961 70.7999 35.4285 70.7999 39.9997C70.7999 44.8241 69.689 49.4922 67.5837 53.7176L67.0591 54.7704L65.9961 54.267C65.626 54.0918 65.2207 53.9997 64.7999 53.9997C63.2536 53.9997 61.9999 55.2533 61.9999 56.7997C61.9999 57.5873 62.3251 58.3198 62.8898 58.847L63.7483 59.6485L62.9653 60.5241C58.0982 65.9665 51.4542 69.5379 44.1515 70.5222L42.8782 70.6938L42.7938 69.4118C42.6973 67.9471 41.4766 66.7997 39.9999 66.7997C38.5233 66.7997 37.3026 67.9471 37.2061 69.4118L37.1217 70.6938L35.8484 70.5222C28.5457 69.5379 21.9017 65.9665 17.0346 60.5241L16.2516 59.6485L17.1101 58.847C17.6748 58.3198 18 57.5873 18 56.7997C18 55.2533 16.7463 53.9997 15.2 53.9997C14.7792 53.9997 14.3739 54.0918 14.0038 54.267L12.9408 54.7704L12.4162 53.7176C10.3109 49.4922 9.19995 44.8241 9.19995 39.9997C9.19995 35.4285 10.1973 30.9961 12.0956 26.9451L12.6536 25.7544L13.7884 26.4187C14.2129 26.6671 14.6953 26.7997 15.2 26.7997C16.7463 26.7997 18 25.5461 18 23.9997C18 23.0825 17.5572 22.2416 16.8238 21.7183L15.7559 20.9563L16.6099 19.9603C21.5062 14.2504 28.3258 10.4912 35.8484 9.47728L37.1217 9.30566L37.2061 10.5877C37.3026 12.0524 38.5233 13.1997 39.9999 13.1997C41.4766 13.1997 42.6973 12.0524 42.7938 10.5877L42.8782 9.30566L44.1515 9.47728C51.6741 10.4912 58.4937 14.2504 63.39 19.9603L64.244 20.9563L63.1761 21.7183C62.4427 22.2416 61.9999 23.0825 61.9999 23.9997C61.9999 25.5461 63.2536 26.7997 64.7999 26.7997C65.3046 26.7997 65.787 26.6671 66.2115 26.4187L67.3463 25.7544L67.9043 26.9451Z" fill="white"/>
<path d="M39.9999 15.5997C37.128 15.5997 34.7999 13.2716 34.7999 10.3997C34.7999 7.52783 37.128 5.19971 39.9999 5.19971C42.8718 5.19971 45.1999 7.52783 45.1999 10.3997C45.1999 13.2716 42.8718 15.5997 39.9999 15.5997ZM39.9999 13.1997C41.5463 13.1997 42.7999 11.9461 42.7999 10.3997C42.7999 8.85331 41.5463 7.59971 39.9999 7.59971C38.4535 7.59971 37.1999 8.85331 37.1999 10.3997C37.1999 11.9461 38.4535 13.1997 39.9999 13.1997Z" fill="white"/>
<path d="M39.9999 74.7999C37.128 74.7999 34.7999 72.4718 34.7999 69.5999C34.7999 66.728 37.128 64.3999 39.9999 64.3999C42.8718 64.3999 45.1999 66.728 45.1999 69.5999C45.1999 72.4718 42.8718 74.7999 39.9999 74.7999ZM39.9999 72.3999C41.5463 72.3999 42.7999 71.1463 42.7999 69.5999C42.7999 68.0535 41.5463 66.7999 39.9999 66.7999C38.4535 66.7999 37.1999 68.0535 37.1999 69.5999C37.1999 71.1463 38.4535 72.3999 39.9999 72.3999Z" fill="white"/>
<path d="M15.2 29.1998C12.3281 29.1998 10 26.8717 10 23.9998C10 21.1279 12.3281 18.7998 15.2 18.7998C18.0719 18.7998 20.4 21.1279 20.4 23.9998C20.4 26.8717 18.0719 29.1998 15.2 29.1998ZM15.2 26.7998C16.7464 26.7998 18 25.5462 18 23.9998C18 22.4534 16.7464 21.1998 15.2 21.1998C13.6536 21.1998 12.4 22.4534 12.4 23.9998C12.4 25.5462 13.6536 26.7998 15.2 26.7998Z" fill="white"/>
<path d="M64.8 61.9996C61.9281 61.9996 59.6 59.6715 59.6 56.7996C59.6 53.9277 61.9281 51.5996 64.8 51.5996C67.6719 51.5996 70 53.9277 70 56.7996C70 59.6715 67.6719 61.9996 64.8 61.9996ZM64.8 59.5996C66.3464 59.5996 67.6 58.346 67.6 56.7996C67.6 55.2532 66.3464 53.9996 64.8 53.9996C63.2536 53.9996 62 55.2532 62 56.7996C62 58.346 63.2536 59.5996 64.8 59.5996Z" fill="white"/>
<path d="M15.2 61.9996C12.3281 61.9996 10 59.6715 10 56.7996C10 53.9277 12.3281 51.5996 15.2 51.5996C18.0719 51.5996 20.4 53.9277 20.4 56.7996C20.4 59.6715 18.0719 61.9996 15.2 61.9996ZM15.2 59.5996C16.7464 59.5996 18 58.346 18 56.7996C18 55.2532 16.7464 53.9996 15.2 53.9996C13.6536 53.9996 12.4 55.2532 12.4 56.7996C12.4 58.346 13.6536 59.5996 15.2 59.5996Z" fill="white"/>
<path d="M64.8 29.1998C61.9281 29.1998 59.6 26.8717 59.6 23.9998C59.6 21.1279 61.9281 18.7998 64.8 18.7998C67.6719 18.7998 70 21.1279 70 23.9998C70 26.8717 67.6719 29.1998 64.8 29.1998Z" fill="white"/>
</svg>
