<svg width="80" height="80" viewBox="0 0 80 80" fill="none" xmlns="http://www.w3.org/2000/svg">
<path d="M69.1734 32.6399H66.56C66.4534 32.6399 66.4 32.5332 66.4 32.4799C65.8134 30.4532 65.0134 28.5332 64 26.7199C63.9467 26.6666 63.9467 26.5599 64 26.5066L65.8667 24.6399C66.4 24.1066 66.72 23.4132 66.72 22.6132C66.72 21.8132 66.4 21.1199 65.8667 20.5866L59.4667 14.1866C58.3467 13.0666 56.5334 13.0666 55.4667 14.1866L53.6 16.0532C53.5467 16.1066 53.44 16.1066 53.3867 16.0532C51.5734 15.0399 49.6 14.2399 47.6267 13.6532C47.5734 13.6532 47.4667 13.5466 47.4667 13.4932V10.8799C47.4667 9.33322 46.1867 8.05322 44.64 8.05322H35.5734C34.0267 8.05322 32.7467 9.33322 32.7467 10.8799V13.4932C32.7467 13.5999 32.64 13.6532 32.5867 13.6532C30.56 14.2399 28.64 15.0399 26.8267 16.0532C26.7734 16.1066 26.6667 16.1066 26.6134 16.0532L24.7467 14.1866C23.6267 13.0666 21.8134 13.0666 20.7467 14.1866L14.3467 20.5866C13.2267 21.7066 13.2267 23.5199 14.3467 24.5866L16.2134 26.4532C16.2667 26.5066 16.2667 26.6132 16.2134 26.6666C15.2 28.4799 14.4 30.4532 13.8134 32.4266C13.8134 32.4799 13.7067 32.5866 13.6534 32.5866H11.04C9.49338 32.5866 8.21338 33.8666 8.21338 35.4132V44.4799C8.21338 46.0266 9.49338 47.3066 11.04 47.3066H13.6534C13.76 47.3066 13.8134 47.4132 13.8134 47.4666C14.4 49.4932 15.2 51.4132 16.2134 53.2266C16.2667 53.2799 16.2667 53.3866 16.2134 53.4399L14.3467 55.3066C13.2267 56.4266 13.2267 58.2399 14.3467 59.3066L20.7467 65.7066C21.8667 66.8266 23.68 66.8266 24.7467 65.7066L26.6134 63.8399C26.6667 63.7866 26.7734 63.7866 26.8267 63.8399C28.64 64.8532 30.6134 65.6532 32.5867 66.2399C32.64 66.2399 32.7467 66.3466 32.7467 66.3999V69.0132C32.7467 70.5599 34.0267 71.8399 35.5734 71.8399H44.64C46.1867 71.8399 47.4667 70.5599 47.4667 69.0132V66.3999C47.4667 66.2932 47.5734 66.2399 47.6267 66.2399C49.6534 65.6532 51.5734 64.8532 53.3867 63.8399C53.44 63.7866 53.5467 63.7866 53.6 63.8399L55.4667 65.7066C56.5867 66.8266 58.4 66.8266 59.4667 65.7066L65.8667 59.3066C66.4 58.7732 66.72 58.0799 66.72 57.2799C66.72 56.4799 66.4 55.7866 65.8667 55.2532L64 53.3866C63.9467 53.3332 63.9467 53.2266 64 53.1732C65.0134 51.3599 65.8134 49.3866 66.4 47.4132C66.4 47.3599 66.5067 47.2532 66.56 47.2532H69.1734C70.72 47.2532 72 45.9732 72 44.4266V35.3599C72 33.9199 70.72 32.6399 69.1734 32.6399ZM69.3334 44.5332C69.3334 44.6399 69.28 44.6932 69.1734 44.6932H66.56C65.28 44.6932 64.16 45.5466 63.84 46.7732C63.3067 48.5866 62.6134 50.3466 61.6534 51.9999C61.0134 53.1199 61.2267 54.5066 62.1334 55.4132L64 57.2799C64.0534 57.3332 64.0534 57.3332 64.0534 57.3866C64.0534 57.4399 64.0534 57.4932 64 57.4932L57.6 63.8932C57.5467 63.9466 57.44 63.9466 57.3334 63.8932L55.4667 62.0266C54.56 61.1199 53.1734 60.9599 52.0534 61.5466C50.4 62.4532 48.64 63.1999 46.8267 63.7332C45.6 64.1066 44.7467 65.2266 44.7467 66.4532V69.0666C44.7467 69.1732 44.6934 69.2266 44.5867 69.2266H35.52C35.4134 69.2266 35.36 69.1732 35.36 69.0666V66.4532C35.36 65.1732 34.5067 64.0532 33.28 63.7332C31.4667 63.1999 29.7067 62.5066 28.0534 61.5466C27.6267 61.2799 27.1467 61.1732 26.6667 61.1732C25.92 61.1732 25.1734 61.4399 24.64 61.9732L22.7734 63.8399C22.72 63.8932 22.6134 63.8932 22.5067 63.8399L16.1067 57.4399C16.0534 57.3866 16.0534 57.2799 16.1067 57.1732L17.9734 55.3066C18.88 54.3999 19.04 53.0132 18.4534 51.8932C17.5467 50.2399 16.8 48.4799 16.2667 46.6666C15.8934 45.4399 14.7734 44.5866 13.5467 44.5866H10.9334C10.8267 44.5866 10.7734 44.5332 10.7734 44.4266V35.3599C10.7734 35.2532 10.8267 35.1999 10.9334 35.1999H13.5467C14.8267 35.1999 15.9467 34.3466 16.2667 33.1199C16.8 31.3066 17.4934 29.5466 18.4 27.8932C19.04 26.7732 18.8267 25.3866 17.92 24.4799L16.0534 22.6132C16 22.5599 16 22.4532 16.0534 22.3466L22.4534 15.9466C22.5067 15.8932 22.6134 15.8932 22.72 15.9466L24.5867 17.8132C25.4934 18.7199 26.88 18.8799 28 18.2932C29.6534 17.3866 31.4134 16.6399 33.2267 16.1066C34.4534 15.7332 35.3067 14.6132 35.3067 13.3866V10.7732C35.3067 10.6666 35.36 10.6132 35.4667 10.6132H44.5334C44.64 10.6132 44.6934 10.6666 44.6934 10.7732V13.3866C44.6934 14.6666 45.5467 15.7866 46.7734 16.1066C48.5867 16.6399 50.3467 17.3332 52 18.2932C53.12 18.9332 54.5067 18.7199 55.4134 17.8132L57.28 15.9466C57.3334 15.8932 57.44 15.8932 57.5467 15.9466L63.9467 22.3466C64 22.3999 64 22.3999 64 22.4532C64 22.5066 64 22.5599 63.9467 22.5599L62.08 24.4266C61.1734 25.3332 61.0134 26.7199 61.6 27.8399C62.5067 29.4932 63.2534 31.2532 63.7867 33.0666C64.16 34.2932 65.28 35.1466 66.5067 35.1466H69.1201C69.2267 35.1466 69.28 35.1999 69.28 35.3066V44.5332H69.3334Z" fill="white"/>
<path d="M49.3867 23.3603C42.4534 19.4136 33.4401 20.3736 27.4667 25.6003C21.3867 30.9336 19.3067 39.5203 22.2401 46.9869C25.1201 54.2403 32.2134 59.0936 40.0534 59.0936C40.1601 59.0936 40.2667 59.0936 40.4267 59.0936C48.3201 58.9336 55.4134 53.8136 58.0801 46.3469C61.0667 37.7603 57.3334 27.8403 49.3867 23.3603ZM55.5201 45.4936C53.2267 51.8936 47.1467 56.3203 40.3201 56.4269C33.4934 56.5869 27.2001 52.3736 24.6934 46.0269C22.1867 39.6269 24.0001 32.2136 29.2267 27.6269C32.2134 24.9603 36.1601 23.6269 40.0534 23.6269C42.8267 23.6269 45.6001 24.3203 48.0534 25.7069C54.9334 29.5469 58.0801 38.0803 55.5201 45.4936Z" fill="white"/>
<path d="M39.9999 36.8C39.4132 36.8 38.8799 36.96 38.3999 37.2266L34.2932 32.96L33.1199 34.08L37.2265 38.3466C36.9065 38.8266 36.7465 39.4133 36.7465 40C36.7465 41.76 38.1865 43.2 39.9465 43.2C41.4399 43.2 42.6665 42.1866 43.0399 40.8H50.5065V39.2H43.0399C42.7199 37.8133 41.4932 36.8 39.9999 36.8ZM41.5999 40C41.5999 40.9066 40.9065 41.6 39.9999 41.6C39.0932 41.6 38.3999 40.9066 38.3999 40C38.3999 39.0933 39.0932 38.4 39.9999 38.4C40.9065 38.4 41.5999 39.0933 41.5999 40Z" fill="white"/>
<path d="M40.0001 27.7868C40.7365 27.7868 41.3334 27.1898 41.3334 26.4535C41.3334 25.7171 40.7365 25.1201 40.0001 25.1201C39.2637 25.1201 38.6667 25.7171 38.6667 26.4535C38.6667 27.1898 39.2637 27.7868 40.0001 27.7868Z" fill="white"/>
<path d="M53.5467 41.3332C54.2831 41.3332 54.88 40.7362 54.88 39.9998C54.88 39.2635 54.2831 38.6665 53.5467 38.6665C52.8103 38.6665 52.2134 39.2635 52.2134 39.9998C52.2134 40.7362 52.8103 41.3332 53.5467 41.3332Z" fill="white"/>
<path d="M40.0001 54.88C40.7365 54.88 41.3334 54.2831 41.3334 53.5467C41.3334 52.8103 40.7365 52.2134 40.0001 52.2134C39.2637 52.2134 38.6667 52.8103 38.6667 53.5467C38.6667 54.2831 39.2637 54.88 40.0001 54.88Z" fill="white"/>
<path d="M26.4532 41.3332C27.1896 41.3332 27.7865 40.7362 27.7865 39.9998C27.7865 39.2635 27.1896 38.6665 26.4532 38.6665C25.7168 38.6665 25.1199 39.2635 25.1199 39.9998C25.1199 40.7362 25.7168 41.3332 26.4532 41.3332Z" fill="white"/>
</svg>
