<svg width="80" height="80" viewBox="0 0 80 80" fill="none" xmlns="http://www.w3.org/2000/svg">
<g clip-path="url(#clip0_74_1095)">
<path d="M31.0402 18.0519C31.4646 18.0519 31.8716 18.2205 32.1716 18.5205C32.4717 18.8206 32.6402 19.2276 32.6402 19.6519V31.8471C32.6402 32.2715 32.4717 32.6784 32.1716 32.9785C31.8716 33.2785 31.4646 33.4471 31.0402 33.4471H21.8018C21.3775 33.4471 20.9705 33.2785 20.6705 32.9785C20.3704 32.6784 20.2018 32.2715 20.2018 31.8471C20.2018 31.4228 20.3704 31.0158 20.6705 30.7157C20.9705 30.4157 21.3775 30.2471 21.8018 30.2471H29.4402V19.6519C29.4402 19.2276 29.6088 18.8206 29.9089 18.5205C30.2089 18.2205 30.6159 18.0519 31.0402 18.0519ZM34.5378 50.5607C33.3947 50.7974 32.23 50.9143 31.0626 50.9095C27.8563 50.9147 24.7008 50.1094 21.889 48.5684C19.0773 47.0275 16.7007 44.8009 14.9799 42.0955C13.2591 39.39 12.25 36.2936 12.0464 33.0938C11.8428 29.894 12.4512 26.6946 13.8151 23.7928C15.1791 20.8911 17.2543 18.3812 19.848 16.4963C22.4417 14.6113 25.4697 13.4125 28.6508 13.0112C31.8319 12.6098 35.0628 13.019 38.0434 14.2007C41.024 15.3824 43.6575 17.2983 45.6994 19.7703C45.8333 19.9323 45.9977 20.0664 46.1834 20.1648C46.369 20.2633 46.5722 20.3242 46.7814 20.3441C46.9906 20.364 47.2017 20.3425 47.4026 20.2808C47.6035 20.2192 47.7902 20.1186 47.9522 19.9847C48.1142 19.8509 48.2483 19.6864 48.3467 19.5008C48.4452 19.3151 48.5061 19.1119 48.526 18.9027C48.5459 18.6935 48.5244 18.4825 48.4628 18.2816C48.4011 18.0807 48.3005 17.8939 48.1666 17.7319C45.7844 14.8399 42.7095 12.5973 39.228 11.2125C35.7465 9.82771 31.9713 9.34577 28.2535 9.81148C24.5358 10.2772 20.9961 11.6754 17.9637 13.8762C14.9314 16.077 12.5047 19.0088 10.9094 22.399C9.31412 25.7893 8.60201 29.5279 8.83928 33.2672C9.07656 37.0065 10.2555 40.6251 12.2665 43.7865C14.2776 46.9479 17.0553 49.5494 20.3416 51.3492C23.6278 53.1491 27.3158 54.0887 31.0626 54.0807C32.4522 54.0888 33.8388 53.9527 35.2002 53.6743C35.4103 53.6355 35.6104 53.555 35.7889 53.4376C35.9673 53.3202 36.1204 53.1683 36.2392 52.9908C36.358 52.8133 36.44 52.6138 36.4805 52.404C36.521 52.1943 36.519 51.9786 36.4748 51.7697C36.4306 51.5607 36.3449 51.3627 36.223 51.1873C36.101 51.012 35.9452 50.8628 35.7647 50.7487C35.5841 50.6345 35.3826 50.5577 35.1719 50.5226C34.9612 50.4876 34.7456 50.4951 34.5378 50.5447V50.5607ZM71.1778 30.2215V37.4407C71.1778 37.8651 71.0093 38.272 70.7092 38.5721C70.4092 38.8721 70.0022 39.0407 69.5778 39.0407H68.4802V65.5655C68.4802 66.8386 67.9745 68.0595 67.0744 68.9596C66.1742 69.8598 64.9533 70.3655 63.6802 70.3655H44.4802C43.2072 70.3655 41.9863 69.8598 41.0861 68.9596C40.186 68.0595 39.6802 66.8386 39.6802 65.5655V39.0407H38.5922C38.1679 39.0407 37.7609 38.8721 37.4609 38.5721C37.1608 38.272 36.9922 37.8651 36.9922 37.4407V30.2055C36.9922 29.7812 37.1608 29.3742 37.4609 29.0741C37.7609 28.7741 38.1679 28.6055 38.5922 28.6055H48.0354V28.3335C48.0354 27.0605 48.5412 25.8396 49.4413 24.9394C50.3415 24.0392 51.5624 23.5335 52.8354 23.5335H55.3634C56.6365 23.5335 57.8574 24.0392 58.7576 24.9394C59.6577 25.8396 60.1634 27.0605 60.1634 28.3335V28.6055H69.5906C70.0128 28.6089 70.4165 28.779 70.7137 29.0786C71.011 29.3783 71.1779 29.7834 71.1778 30.2055V30.2215ZM51.2226 28.6215H56.9602V28.3335C56.9602 27.9092 56.7917 27.5022 56.4916 27.2021C56.1916 26.9021 55.7846 26.7335 55.3602 26.7335H52.8322C52.4079 26.7335 52.0009 26.9021 51.7009 27.2021C51.4008 27.5022 51.2322 27.9092 51.2322 28.3335L51.2226 28.6215ZM40.1794 35.8407H67.9778V31.8055H40.1794V35.8407ZM65.2898 39.0407H42.8802V65.5655C42.8802 65.9899 43.0488 66.3968 43.3489 66.6969C43.6489 66.9969 44.0559 67.1655 44.4802 67.1655H63.6802C64.1046 67.1655 64.5116 66.9969 64.8116 66.6969C65.1117 66.3968 65.2802 65.9899 65.2802 65.5655L65.2898 39.0407ZM49.6098 62.4807C49.82 62.4807 50.028 62.4393 50.2221 62.3589C50.4163 62.2785 50.5926 62.1607 50.7412 62.0121C50.8898 61.8635 51.0076 61.6871 51.088 61.493C51.1685 61.2989 51.2098 61.0908 51.2098 60.8807V44.1191C51.2098 43.6948 51.0413 43.2878 50.7412 42.9877C50.4412 42.6877 50.0342 42.5191 49.6098 42.5191C49.1855 42.5191 48.7785 42.6877 48.4785 42.9877C48.1784 43.2878 48.0098 43.6948 48.0098 44.1191V60.8711C48.0098 61.0823 48.0516 61.2914 48.1328 61.4864C48.2141 61.6813 48.3331 61.8583 48.483 62.007C48.6329 62.1558 48.8108 62.2734 49.0064 62.353C49.202 62.4327 49.4114 62.4728 49.6226 62.4711L49.6098 62.4807ZM58.5218 62.4807C58.9462 62.4807 59.3532 62.3121 59.6532 62.0121C59.9533 61.712 60.1218 61.3051 60.1218 60.8807V44.1191C60.1218 43.6948 59.9533 43.2878 59.6532 42.9877C59.3532 42.6877 58.9462 42.5191 58.5218 42.5191C58.0975 42.5191 57.6905 42.6877 57.3905 42.9877C57.0904 43.2878 56.9218 43.6948 56.9218 44.1191V60.8711C56.9218 61.0823 56.9636 61.2914 57.0448 61.4864C57.1261 61.6813 57.2451 61.8583 57.395 62.007C57.5449 62.1558 57.7228 62.2734 57.9184 62.353C58.114 62.4327 58.3234 62.4728 58.5346 62.4711L58.5218 62.4807Z" fill="white"/>
</g>
<defs>
<clipPath id="clip0_74_1095">
<rect width="80" height="80" fill="white"/>
</clipPath>
</defs>
</svg>
